<svg width="20" height="20" viewBox="0 0 20 20" fill="none" xmlns="http://www.w3.org/2000/svg">
<path d="M16.087 2.6087C13.9291 2.6087 12.1739 4.36436 12.1739 6.52175C12.1739 6.76175 12.3683 6.95653 12.6087 6.95653C12.8491 6.95653 13.0435 6.76175 13.0435 6.52175C13.0435 4.84349 14.4091 3.47827 16.087 3.47827C17.7648 3.47827 19.1304 4.84349 19.1304 6.52175C19.1304 8.20001 17.7648 9.56523 16.087 9.56523H0.434783C0.194783 9.56523 0 9.76001 0 10C0 10.24 0.194783 10.4348 0.434783 10.4348H16.087C18.2448 10.4348 20 8.67914 20 6.52175C20 4.36436 18.2448 2.6087 16.087 2.6087Z" fill="#007AFF"/>
<path d="M0.434783 7.82609H7.82609C9.50435 7.82609 10.8696 6.46087 10.8696 4.78261C10.8696 3.10435 9.50435 1.73914 7.82609 1.73914C6.14783 1.73914 4.78261 3.10435 4.78261 4.78261C4.78261 5.02261 4.97739 5.2174 5.21739 5.2174C5.45739 5.2174 5.65217 5.02261 5.65217 4.78261C5.65217 3.58392 6.62739 2.6087 7.82609 2.6087C9.02478 2.6087 10 3.58392 10 4.78261C10 5.98131 9.02478 6.95653 7.82609 6.95653H0.434783C0.194783 6.95653 0 7.15131 0 7.39131C0 7.63131 0.194783 7.82609 0.434783 7.82609Z" fill="#007AFF"/>
<path d="M15.2174 17.3913C14.0187 17.3913 13.0435 16.4161 13.0435 15.2174C13.0435 14.9774 12.8491 14.7826 12.6087 14.7826C12.3683 14.7826 12.1739 14.9774 12.1739 15.2174C12.1739 16.8957 13.5396 18.2609 15.2174 18.2609C16.8952 18.2609 18.2609 16.8957 18.2609 15.2174C18.2609 13.5391 16.8952 12.1739 15.2174 12.1739H0.434783C0.194783 12.1739 0 12.3687 0 12.6087C0 12.8487 0.194783 13.0435 0.434783 13.0435H15.2174C16.4161 13.0435 17.3913 14.0187 17.3913 15.2174C17.3913 16.4161 16.4161 17.3913 15.2174 17.3913Z" fill="#007AFF"/>
</svg>
