<svg width="19" height="19" viewBox="0 0 19 19" fill="none" xmlns="http://www.w3.org/2000/svg">
<path d="M15.4728 13.2818C15.0438 13.2816 14.6216 13.1734 14.2454 12.9672C13.8691 12.7609 13.5508 12.4633 13.3199 12.1016C13.0891 12.4634 12.7709 12.7611 12.3946 12.9674C12.0184 13.1737 11.5962 13.2818 11.1671 13.2818C10.738 13.2818 10.3158 13.1737 9.93951 12.9674C9.56324 12.7611 9.24502 12.4634 9.01424 12.1016C8.78346 12.4634 8.46523 12.7611 8.08896 12.9674C7.71269 13.1737 7.29051 13.2818 6.86141 13.2818C6.43231 13.2818 6.01012 13.1737 5.63385 12.9674C5.25758 12.7611 4.93936 12.4634 4.70858 12.1016C4.41125 12.5675 3.97083 12.9245 3.45342 13.1188C2.93601 13.3132 2.36952 13.3344 1.83898 13.1795C1.30844 13.0245 0.842471 12.7017 0.511005 12.2594C0.17954 11.8171 0.000461556 11.2793 0.000648645 10.7265C0.000648645 10.6199 0.0430306 10.5175 0.118471 10.4421C0.193911 10.3667 0.296229 10.3243 0.402918 10.3243C0.509606 10.3243 0.611925 10.3667 0.687365 10.4421C0.762805 10.5175 0.805187 10.6199 0.805187 10.7265C0.802534 10.9581 0.845853 11.1879 0.932636 11.4026C1.01942 11.6174 1.14794 11.8127 1.31076 11.9774C1.47358 12.1421 1.66746 12.2729 1.88116 12.3621C2.09487 12.4513 2.32416 12.4973 2.55575 12.4973C2.78734 12.4973 3.01663 12.4513 3.23033 12.3621C3.44404 12.2729 3.63792 12.1421 3.80073 11.9774C3.96355 11.8127 4.09208 11.6174 4.17886 11.4026C4.26564 11.1879 4.30896 10.9581 4.30631 10.7265C4.30631 10.6199 4.34869 10.5175 4.42413 10.4421C4.49957 10.3667 4.60189 10.3243 4.70858 10.3243C4.81527 10.3243 4.91759 10.3667 4.99303 10.4421C5.06847 10.5175 5.11085 10.6199 5.11085 10.7265C5.10819 10.9581 5.15151 11.1879 5.2383 11.4026C5.32508 11.6174 5.4536 11.8127 5.61642 11.9774C5.77924 12.1421 5.97312 12.2729 6.18682 12.3621C6.40053 12.4513 6.62982 12.4973 6.86141 12.4973C7.093 12.4973 7.32229 12.4513 7.53599 12.3621C7.7497 12.2729 7.94358 12.1421 8.1064 11.9774C8.26921 11.8127 8.39774 11.6174 8.48452 11.4026C8.5713 11.1879 8.61462 10.9581 8.61197 10.7265C8.61197 10.6199 8.65435 10.5175 8.72979 10.4421C8.80523 10.3667 8.90755 10.3243 9.01424 10.3243C9.12093 10.3243 9.22325 10.3667 9.29869 10.4421C9.37413 10.5175 9.41651 10.6199 9.41651 10.7265C9.41385 10.9581 9.45717 11.1879 9.54396 11.4026C9.63074 11.6174 9.75926 11.8127 9.92208 11.9774C10.0849 12.1421 10.2788 12.2729 10.4925 12.3621C10.7062 12.4513 10.9355 12.4973 11.1671 12.4973C11.3987 12.4973 11.6279 12.4513 11.8417 12.3621C12.0554 12.2729 12.2492 12.1421 12.4121 11.9774C12.5749 11.8127 12.7034 11.6174 12.7902 11.4026C12.877 11.1879 12.9203 10.9581 12.9176 10.7265C12.9176 10.6199 12.96 10.5175 13.0355 10.4421C13.1109 10.3667 13.2132 10.3243 13.3199 10.3243C13.4266 10.3243 13.5289 10.3667 13.6043 10.4421C13.6798 10.5175 13.7222 10.6199 13.7222 10.7265C13.7195 10.9581 13.7628 11.1879 13.8496 11.4026C13.9364 11.6174 14.0649 11.8127 14.2277 11.9774C14.3906 12.1421 14.5844 12.2729 14.7981 12.3621C15.0119 12.4513 15.2411 12.4973 15.4727 12.4973C15.7043 12.4973 15.9336 12.4513 16.1473 12.3621C16.361 12.2729 16.5549 12.1421 16.7177 11.9774C16.8805 11.8127 17.0091 11.6174 17.0958 11.4026C17.1826 11.1879 17.2259 10.9581 17.2233 10.7265C17.2233 10.6199 17.2657 10.5175 17.3411 10.4421C17.4166 10.3667 17.5189 10.3243 17.6256 10.3243C17.7322 10.3243 17.8346 10.3667 17.91 10.4421C17.9854 10.5175 18.0278 10.6199 18.0278 10.7265C18.0271 11.404 17.7577 12.0534 17.2787 12.5325C16.7997 13.0115 16.1503 13.281 15.4728 13.2818Z" fill="#AFD1FD"/>
<path d="M15.4729 18.0276C15.0438 18.0275 14.6216 17.9192 14.2454 17.7129C13.8691 17.5067 13.5508 17.2089 13.3199 16.8473C13.0892 17.2091 12.771 17.5069 12.3947 17.7132C12.0184 17.9195 11.5962 18.0277 11.1671 18.0277C10.738 18.0277 10.3158 17.9195 9.93951 17.7132C9.56323 17.5069 9.24502 17.2091 9.01428 16.8473C8.78354 17.2091 8.46533 17.5069 8.08905 17.7132C7.71278 17.9195 7.29057 18.0277 6.86145 18.0277C6.43233 18.0277 6.01012 17.9195 5.63385 17.7132C5.25757 17.5069 4.93936 17.2091 4.70862 16.8473C4.41146 17.3134 3.97109 17.6706 3.45363 17.8652C2.93618 18.0598 2.36956 18.0812 1.83887 17.9264C1.30818 17.7715 0.842051 17.4486 0.510477 17.0063C0.178902 16.5639 -0.000221949 16.0259 2.06393e-07 15.4731C2.06393e-07 15.3664 0.0423822 15.2641 0.117822 15.1887C0.193262 15.1132 0.295581 15.0708 0.402269 15.0708C0.508958 15.0708 0.611277 15.1132 0.686717 15.1887C0.762157 15.2641 0.804539 15.3664 0.804539 15.4731C0.801885 15.7047 0.845204 15.9345 0.931988 16.1492C1.01877 16.3639 1.14729 16.5593 1.31011 16.724C1.47293 16.8887 1.66681 17.0194 1.88051 17.1086C2.09422 17.1979 2.32351 17.2438 2.5551 17.2438C2.78669 17.2438 3.01598 17.1979 3.22968 17.1086C3.44339 17.0194 3.63727 16.8887 3.80009 16.724C3.9629 16.5593 4.09143 16.3639 4.17821 16.1492C4.26499 15.9345 4.30831 15.7047 4.30566 15.4731C4.30566 15.3664 4.34804 15.2641 4.42348 15.1887C4.49892 15.1132 4.60124 15.0708 4.70793 15.0708C4.81462 15.0708 4.91694 15.1132 4.99238 15.1887C5.06782 15.2641 5.1102 15.3664 5.1102 15.4731C5.10755 15.7047 5.15086 15.9345 5.23765 16.1492C5.32443 16.3639 5.45296 16.5593 5.61577 16.724C5.77859 16.8887 5.97247 17.0194 6.18617 17.1086C6.39988 17.1979 6.62917 17.2438 6.86076 17.2438C7.09235 17.2438 7.32164 17.1979 7.53535 17.1086C7.74905 17.0194 7.94293 16.8887 8.10575 16.724C8.26857 16.5593 8.39709 16.3639 8.48387 16.1492C8.57065 15.9345 8.61398 15.7047 8.61132 15.4731C8.61132 15.3664 8.6537 15.2641 8.72914 15.1887C8.80458 15.1132 8.9069 15.0708 9.01359 15.0708C9.12028 15.0708 9.2226 15.1132 9.29804 15.1887C9.37348 15.2641 9.41586 15.3664 9.41586 15.4731C9.41321 15.7047 9.45652 15.9345 9.54331 16.1492C9.63009 16.3639 9.75862 16.5593 9.92143 16.724C10.0843 16.8887 10.2781 17.0194 10.4918 17.1086C10.7055 17.1979 10.9348 17.2438 11.1664 17.2438C11.398 17.2438 11.6273 17.1979 11.841 17.1086C12.0547 17.0194 12.2486 16.8887 12.4114 16.724C12.5742 16.5593 12.7027 16.3639 12.7895 16.1492C12.8763 15.9345 12.9196 15.7047 12.917 15.4731C12.917 15.3664 12.9594 15.2641 13.0348 15.1887C13.1102 15.1132 13.2126 15.0708 13.3193 15.0708C13.4259 15.0708 13.5283 15.1132 13.6037 15.1887C13.6791 15.2641 13.7215 15.3664 13.7215 15.4731C13.7189 15.7047 13.7622 15.9345 13.849 16.1492C13.9358 16.3639 14.0643 16.5593 14.2271 16.724C14.3899 16.8887 14.5838 17.0194 14.7975 17.1086C15.0112 17.1979 15.2405 17.2438 15.4721 17.2438C15.7037 17.2438 15.933 17.1979 16.1467 17.1086C16.3604 17.0194 16.5542 16.8887 16.7171 16.724C16.8799 16.5593 17.0084 16.3639 17.0952 16.1492C17.182 15.9345 17.2253 15.7047 17.2226 15.4731C17.2226 15.3664 17.265 15.2641 17.3405 15.1887C17.4159 15.1132 17.5182 15.0708 17.6249 15.0708C17.7316 15.0708 17.8339 15.1132 17.9094 15.1887C17.9848 15.2641 18.0272 15.3664 18.0272 15.4731C18.0263 16.1503 17.7569 16.7995 17.2781 17.2783C16.7992 17.7572 16.1501 18.0267 15.4729 18.0276Z" fill="#9AA1EB"/>
<path d="M10.8167 1.63642L9.29792 0.117912C9.2606 0.0805331 9.21628 0.0508795 9.16749 0.0306469C9.11869 0.0104143 9.06639 0 9.01357 0C8.96075 0 8.90845 0.0104143 8.85966 0.0306469C8.81087 0.0508795 8.76655 0.0805331 8.72923 0.117912L7.21049 1.63642C7.13504 1.71187 7.09266 1.81419 7.09266 1.92088C7.09266 2.02758 7.13504 2.1299 7.21049 2.20534C7.28593 2.28079 7.38826 2.32317 7.49495 2.32317C7.60164 2.32317 7.70397 2.28079 7.77941 2.20534L8.6113 1.37345V5.38327C8.6113 5.48996 8.65369 5.59228 8.72913 5.66772C8.80457 5.74316 8.90688 5.78554 9.01357 5.78554C9.12026 5.78554 9.22258 5.74316 9.29802 5.66772C9.37346 5.59228 9.41584 5.48996 9.41584 5.38327V1.37345L10.2477 2.20534C10.2851 2.2427 10.3294 2.27233 10.3782 2.29255C10.4271 2.31277 10.4794 2.32317 10.5322 2.32317C10.585 2.32317 10.6373 2.31277 10.6861 2.29255C10.735 2.27233 10.7793 2.2427 10.8167 2.20534C10.854 2.16799 10.8836 2.12364 10.9039 2.07483C10.9241 2.02602 10.9345 1.97371 10.9345 1.92088C10.9345 1.86805 10.9241 1.81574 10.9039 1.76693C10.8836 1.71813 10.854 1.67378 10.8167 1.63642Z" fill="#BFFDFF"/>
<path d="M2.91284 2.86851C2.8755 2.83113 2.83116 2.80147 2.78235 2.78123C2.73354 2.761 2.68122 2.75058 2.62838 2.75058C2.57554 2.75058 2.52322 2.761 2.47441 2.78123C2.4256 2.80147 2.38126 2.83113 2.34392 2.86851L0.825408 4.38702C0.749964 4.46247 0.707581 4.56479 0.707581 4.67148C0.707581 4.77818 0.749964 4.8805 0.825408 4.95594C0.900852 5.03139 1.00318 5.07377 1.10987 5.07377C1.21656 5.07377 1.31889 5.03139 1.39433 4.95594L2.22623 4.12405V8.13387C2.22623 8.24056 2.26861 8.34288 2.34405 8.41832C2.41949 8.49376 2.52181 8.53614 2.62849 8.53614C2.73518 8.53614 2.8375 8.49376 2.91294 8.41832C2.98838 8.34288 3.03076 8.24056 3.03076 8.13387V4.12405L3.86266 4.95594C3.93854 5.02921 4.04016 5.06973 4.14564 5.06879C4.25111 5.06786 4.352 5.02553 4.42656 4.95093C4.50113 4.87633 4.54342 4.77543 4.54431 4.66995C4.54521 4.56448 4.50464 4.46288 4.43135 4.38702L2.91284 2.86851Z" fill="#BFFDFF"/>
<path d="M17.2017 4.38702L15.6831 2.86851C15.6458 2.83113 15.6015 2.80147 15.5527 2.78123C15.5038 2.761 15.4515 2.75058 15.3987 2.75058C15.3458 2.75058 15.2935 2.761 15.2447 2.78123C15.1959 2.80147 15.1516 2.83113 15.1142 2.86851L13.5957 4.38702C13.5573 4.42412 13.5266 4.4685 13.5055 4.51758C13.4844 4.56665 13.4733 4.61944 13.4729 4.67285C13.4724 4.72626 13.4826 4.77923 13.5028 4.82868C13.523 4.87812 13.5528 4.92304 13.5906 4.96081C13.6284 4.99859 13.6733 5.02847 13.7227 5.04871C13.7722 5.06894 13.8251 5.07913 13.8785 5.07868C13.9319 5.07823 13.9847 5.06714 14.0338 5.04607C14.0829 5.02499 14.1273 4.99436 14.1644 4.95594L14.9963 4.12405V8.13387C14.9963 8.24056 15.0387 8.34288 15.1141 8.41832C15.1896 8.49376 15.2919 8.53614 15.3986 8.53614C15.5053 8.53614 15.6076 8.49376 15.683 8.41832C15.7585 8.34288 15.8008 8.24056 15.8008 8.13387V4.12405L16.6327 4.95594C16.7082 5.03139 16.8105 5.07377 16.9172 5.07377C17.0239 5.07377 17.1262 5.03139 17.2017 4.95594C17.2771 4.8805 17.3195 4.77818 17.3195 4.67148C17.3195 4.56479 17.2771 4.46247 17.2017 4.38702Z" fill="#BFFDFF"/>
<path d="M6.84429 6.2554C6.79145 6.25537 6.73913 6.26576 6.69031 6.28596C6.64149 6.30617 6.59713 6.3358 6.55977 6.37316C6.52241 6.41052 6.49278 6.45487 6.47258 6.50369C6.45237 6.55251 6.44199 6.60484 6.44202 6.65767V10.0482C6.44202 10.1549 6.4844 10.2572 6.55984 10.3327C6.63528 10.4081 6.7376 10.4505 6.84429 10.4505C6.95098 10.4505 7.05329 10.4081 7.12873 10.3327C7.20418 10.2572 7.24656 10.1549 7.24656 10.0482V6.6579C7.24659 6.60505 7.2362 6.55272 7.216 6.50389C7.1958 6.45506 7.16617 6.41068 7.12882 6.3733C7.09146 6.33593 7.0471 6.30627 6.99828 6.28604C6.94946 6.26581 6.89713 6.2554 6.84429 6.2554Z" fill="#BFFDFF"/>
<path d="M11.183 6.2554C11.1302 6.25537 11.0779 6.26576 11.0291 6.28596C10.9802 6.30617 10.9359 6.3358 10.8985 6.37316C10.8612 6.41052 10.8315 6.45487 10.8113 6.50369C10.7911 6.55251 10.7807 6.60484 10.7808 6.65767V10.0482C10.7808 10.1549 10.8232 10.2572 10.8986 10.3327C10.974 10.4081 11.0764 10.4505 11.183 10.4505C11.2897 10.4505 11.3921 10.4081 11.4675 10.3327C11.5429 10.2572 11.5853 10.1549 11.5853 10.0482V6.6579C11.5853 6.60505 11.575 6.55272 11.5548 6.50389C11.5346 6.45506 11.5049 6.41068 11.4676 6.3733C11.4302 6.33593 11.3859 6.30627 11.337 6.28604C11.2882 6.26581 11.2359 6.2554 11.183 6.2554Z" fill="#BFFDFF"/>
</svg>
